<?xml version="1.0" encoding="utf-8"?>
<!-- Generator: Adobe Illustrator 19.0.0, SVG Export Plug-In . SVG Version: 6.00 Build 0)  -->
<svg version="1.1" id="图层_1" xmlns="http://www.w3.org/2000/svg" xmlns:xlink="http://www.w3.org/1999/xlink" x="0px" y="0px"
	 viewBox="-151 372.5 118 109" style="enable-background:new -151 372.5 118 109;" xml:space="preserve">
<path d="M-37.5,378.9l-3.7,1.8c-0.8,0.4-1.7,0-1.9-0.8l-0.8-2.5c-2-5.5-4-6.8-6.6-1.4c0,0,0,0.1-0.1,0.1c-1.6,3.9-4.2,8.4-6.3,9
	c-8.6,2.7-11.1,9.9-13.6,16.8c-2.9,8.2-5.9,16.8-18.8,20.8c-6.2,2-13.3,2.7-21,2.3c-20-1.1-36.7-9.7-36.9-9.8
	c-0.9-0.5-2-0.3-2.7,0.4c-0.7,0.7-0.9,1.8-0.4,2.7c3.8,6.9,7.2,11.5,11.5,16.7c0.5,0.6,1.2,0.9,2,0.8c1.4-0.1,2.9-0.1,4.4,0
	c6.9,0.4,15.7,2.7,27.7,7.3c2.7,1,5.7,3.1,8.8,5.2c4.2,2.8,8.7,5.9,14,7.9c0.7,0.3,1.1,1,0.8,1.8l-5.1,15.2h0.1
	c-2.9,0.8-5.6,1.9-8.1,3.4c-1.3,0.7-1.7,2.4-0.9,3.6c0.5,0.8,1.3,1.2,2.1,1.3c0.5,0,1-0.1,1.5-0.4c4.8-2.8,10.7-4.2,16.8-3.8
	c4.8,0.3,9.5,1.6,13.4,3.8c1.3,0.7,2.9,0.3,3.6-1c0.7-1.3,0.3-2.9-1-3.6c-2-1.1-4.2-2.1-6.4-2.8c-0.7-0.2-1.1-1-0.9-1.7l4.6-16l0,0
	c8-3.1,15.2-9.5,20-17.7c4.7-8.2,6.4-17.3,4.4-23.8c-2.4-7.6-3.2-14.4-0.3-22.4h-0.1c0.7-2,3.3-8.5,4.1-10.4
	C-32.3,378.8-34,377.4-37.5,378.9 M-74.6,472c-1.5-0.1-3-0.1-4.5,0c-1,0.1-1.7-0.9-1.4-1.8l3.8-11.4c0.2-0.6,0.8-1,1.5-0.9
	c0.5,0.1,1,0.1,1.5,0.1c1.6,0.1,3.1,0,4.7-0.2c1-0.1,1.8,0.8,1.5,1.8l-3.3,11.6c-0.2,0.7-0.8,1.1-1.5,1
	C-73.1,472.1-73.8,472-74.6,472 M-45.6,435.9c-4.6,7.9-11.6,13.9-19.3,16.3c-2.9,0.9-5.7,1.3-8.5,1.1c-7.8-0.4-14.3-4.9-20.1-8.9
	c-3.4-2.3-6.6-4.5-9.8-5.7c-12.4-4.8-21.6-7.2-29.1-7.6c-1.1-0.1-2.1-0.1-3.1-0.1c-0.4,0-0.9-0.2-1.1-0.5c-1.2-1.5-2.4-3.1-3.6-4.6
	c-0.8-1.1,0.3-2.6,1.6-2.2c7.4,2.6,17.4,5.2,27.9,5.8c8.3,0.5,15.9-0.4,22.7-2.5c15.1-4.7,18.8-15.3,21.8-23.7
	c2.4-6.7,4.2-12,10.6-13.9c2.5-0.8,4.6-3.2,6.3-5.9c0.6-1,2.2-0.8,2.5,0.3l0.5,1.5c0.2,0.6,0.7,1.2,1.3,1.4c0.6,0.3,1.3,0.2,1.9,0
	c1.2-0.6,2.4,0.6,1.9,1.8c-4.2,10-3.3,18.4-0.5,27.3C-40,421.1-41.5,428.8-45.6,435.9"/>
</svg>
